# xmcd
#
# Track frame offsets: 
#        150
#        17205
#        32052
#        46233
#        55617
#        69471
#        78465
#        93786
#        104748
#        117222
#
# Disc length: 1740 seconds
#
# Revision: 0
# Processed by: cddbd v1.4PL0 Copyright (c) Steve Scherf et al.
# Submitted via: ExactAudioCopy v0.90b4
#
DISCID=7a06ca0a
DTITLE=Various Artist - Caipira
DYEAR=1996
DGENRE=Country
TTITLE0=Índia - Cascatinha e Inhana
TTITLE1=Chico Mineiro - Tonico e Tinoco
TTITLE2=Seresteiro da Lua - Pedro Bento e Zé da Estrada
TTITLE3=Estrada da Vida - Milionário e José Rico
TTITLE4=Cabecinha no Ombro - Duo Guarujá
TTITLE5=Canta Moçada - Tonico e Tinoco
TTITLE6=Menino da Porteira - Luizinho e Limeira
TTITLE7=Marvada Pinga - Inezita Barroso
TTITLE8=Flor do Cafezal - Cascatinha e Inhana
TTITLE9=Pagode em Brasília - Tião Carreiro e Pardinho
EXTD=
EXTT0=
EXTT1=
EXTT2=
EXTT3=
EXTT4=
EXTT5=
EXTT6=
EXTT7=
EXTT8=
EXTT9=
PLAYORDER=
